<svg width="643" height="597" viewBox="0 0 643 597" fill="none" xmlns="http://www.w3.org/2000/svg">
<path d="M316.59 234.671V345.962L399.513 286.935L316.59 234.671Z" fill="#D8D8D8"/>
<path d="M102.737 313.23H252.286L314.408 353.6H168.431L102.737 313.23Z" fill="#F8F8F8"/>
<path d="M46.0002 350.182L319.762 512.641L375.785 475.135L102.223 312.776L46.0002 350.182Z" fill="#F8F8F8"/>
<path d="M318.272 84.3589L252.414 128.729L254.301 129.823L252.414 128.829V313.671L314.1 353.366V164.942L527.367 290.094L597 244.331L318.272 84.3589Z" fill="#F8F8F8"/>
<path d="M590.047 257.264V325.709L534.321 357.445V293.973L590.047 257.264ZM597 244.331L527.368 290.094V369.284L597 329.689V244.331Z" fill="#D0D0D0"/>
<path d="M320.675 246.41L392.294 288.89L321.867 339.627L320.675 246.41ZM313.523 234.074L314.137 353.109L404.91 288.293L313.523 234.074Z" fill="#D8D8D8"/>
<path d="M528.261 368.875L314.408 240.855V160.477L528.261 288.699" fill="#ECECEC"/>
<path d="M528.261 368.875L314.408 240.855V160.477L528.261 288.699" stroke="#ECECEC" stroke-width="1.80488" stroke-miterlimit="10"/>
<path d="M590.624 253.22L530.443 290.861C531.064 313.898 532.305 360.219 532.305 361.206C532.305 362.193 573.253 339.814 593.726 328.502L590.624 253.22Z" fill="#D0D0D0"/>
</svg>
