<svg width="96" height="96" viewBox="0 0 96 96" fill="none" xmlns="http://www.w3.org/2000/svg">
<path d="M90.1178 96H5.88221C2.62701 96 0 93.373 0 90.1178V5.88221C0 2.62701 2.62701 0 5.88221 0H90.1178C93.373 0 96 2.62701 96 5.88221V90.1178C96 93.373 93.373 96 90.1178 96Z" fill="#2C2E2E"/>
<path d="M73.6133 41.1184H20.6163C19.8168 41.1184 19.1886 40.4902 19.1886 39.6907V35.5217C19.1886 34.7222 19.8168 34.094 20.6163 34.094H73.6133C74.4128 34.094 75.041 34.7222 75.041 35.5217V39.6907C75.041 40.4902 74.4128 41.1184 73.6133 41.1184Z" fill="#EEEEEE"/>
<path d="M48.9994 48.0856H44.9447C44.1451 48.0856 43.5169 47.4574 43.5169 46.6579V28.6686C43.5169 27.8691 44.1451 27.2409 44.9447 27.2409H48.9994C49.7989 27.2409 50.4271 27.8691 50.4271 28.6686V46.6579C50.4271 47.4574 49.7989 48.0856 48.9994 48.0856Z" fill="#EEEEEE"/>
<path d="M33.8084 72.7567H29.7537C28.9542 72.7567 28.326 72.1285 28.326 71.3289V53.3396C28.326 52.5401 28.9542 51.9119 29.7537 51.9119H33.8084C34.608 51.9119 35.2362 52.5401 35.2362 53.3396V71.3289C35.2362 72.1285 34.608 72.7567 33.8084 72.7567Z" fill="#EEEEEE"/>
<path d="M35.1791 60.3069V64.3617C35.1791 65.1612 34.5509 65.7894 33.7513 65.7894H20.6163C19.8168 65.7894 19.1886 65.1612 19.1886 64.3617V60.3069C19.1886 59.5074 19.8168 58.8792 20.6163 58.8792H33.7513C34.5509 58.8792 35.1791 59.5074 35.1791 60.3069Z" fill="#EEEEEE"/>
<path d="M75.6121 60.3069V64.3617C75.6121 65.1612 74.9839 65.7894 74.1844 65.7894H40.5473C39.7478 65.7894 39.1196 65.1612 39.1196 64.3617V60.3069C39.1196 59.5074 39.7478 58.8792 40.5473 58.8792H74.1844C74.9839 58.8792 75.6121 59.5074 75.6121 60.3069Z" fill="#EEEEEE"/>
</svg>
