<svg width="96" height="96" viewBox="0 0 96 96" fill="none" xmlns="http://www.w3.org/2000/svg">
<path d="M90.1178 96H5.88221C2.62701 96 0 93.373 0 90.1178V5.88221C0 2.62701 2.62701 0 5.88221 0H90.1178C93.373 0 96 2.62701 96 5.88221V90.1178C96 93.373 93.373 96 90.1178 96Z" fill="#2C2E2E"/>
<path d="M50.4271 48.0285C50.4271 49.342 49.342 50.4271 48.0285 50.4271C46.715 50.4271 45.6299 49.342 45.6299 48.0285C45.6299 46.715 46.715 45.63 48.0285 45.63C49.342 45.5729 50.4271 46.6579 50.4271 48.0285Z" fill="#EEEEEE"/>
<path d="M48.0285 21.8156C33.58 21.8156 21.8156 33.5229 21.8156 48.0285C21.8156 62.4771 33.5229 74.2415 48.0285 74.2415C62.4771 74.2415 74.2415 62.5342 74.2415 48.0285C74.1844 33.5229 62.4771 21.8156 48.0285 21.8156ZM58.4794 38.2058L55.5669 50.4271C54.9958 52.7686 53.2825 54.6531 50.9982 55.3385L39.0053 59.0505C38.2058 59.3361 37.4063 58.5937 37.5776 57.737L40.4901 45.5157C41.0612 43.1743 42.7745 41.2897 45.0589 40.6044L56.9946 36.8923C57.8512 36.6639 58.6508 37.3492 58.4794 38.2058Z" fill="#EEEEEE"/>
</svg>
