<svg width="96" height="96" viewBox="0 0 96 96" fill="none" xmlns="http://www.w3.org/2000/svg">
<path d="M90.1178 96H5.88221C2.62701 96 0 93.373 0 90.1178V5.88221C0 2.62701 2.62701 0 5.88221 0H90.1178C93.373 0 96 2.62701 96 5.88221V90.1178C96 93.373 93.373 96 90.1178 96Z" fill="#2C2E2E"/>
<path d="M27.298 25.6418C25.8703 25.6418 24.7281 26.784 24.7281 28.2117V60.5354V67.7882C24.7281 69.9012 27.1267 71.1005 28.84 69.8441L40.7186 61.0493C41.1755 60.7067 41.6895 60.5354 42.2606 60.5354H68.8162C70.2439 60.5354 71.3861 59.3932 71.3861 57.9655V28.2117C71.3861 26.784 70.2439 25.6418 68.8162 25.6418H27.298Z" fill="#EEEEEE"/>
</svg>
