<svg width="96" height="96" viewBox="0 0 96 96" fill="none" xmlns="http://www.w3.org/2000/svg">
<path d="M90.1178 96H5.88221C2.62701 96 0 93.373 0 90.1178V5.88221C0 2.62701 2.62701 0 5.88221 0H90.1178C93.373 0 96 2.62701 96 5.88221V90.1178C96 93.373 93.373 96 90.1178 96Z" fill="#2C2E2E"/>
<path d="M58.7079 24.3284C60.1356 24.6139 63.5051 25.4705 66.5318 28.326C70.301 31.9239 71.1005 36.2641 71.2719 37.6347C72.8138 36.3212 74.2986 35.0077 75.8406 33.6371C75.8977 32.9518 76.2974 27.6978 72.1856 23.6431C68.1309 19.7026 62.9911 20.1594 62.3058 20.2736C61.1065 21.6443 59.9072 23.0149 58.7079 24.3284Z" fill="#EEEEEE"/>
<path d="M28.326 53.9108C36.6068 45.7442 44.9447 37.5777 53.2255 29.4111C53.9108 29.2969 58.7079 28.4973 62.8197 31.8668C67.4456 35.6931 67.1029 41.4611 67.0458 41.975C58.4224 50.4843 49.7989 59.0506 41.1755 67.5598C40.7757 65.9037 39.7478 62.3629 36.6068 59.0506C33.5229 55.6812 29.925 54.3677 28.326 53.9108Z" fill="#EEEEEE"/>
<path d="M23.9857 58.7079C25.5848 58.9934 28.7258 59.8501 31.6954 62.3628C35.8073 65.7894 37.0066 70.1868 37.3492 71.7287C32.3236 73.0422 27.3552 74.2986 22.3296 75.6121C21.5872 75.7263 20.8448 75.8405 20.5592 75.6692C19.9881 75.2695 20.0452 74.4128 20.2737 73.7275C21.5301 68.7019 22.7293 63.7335 23.9857 58.7079Z" fill="#EEEEEE"/>
</svg>
