<svg width="96" height="96" viewBox="0 0 96 96" fill="none" xmlns="http://www.w3.org/2000/svg">
<path d="M90.1178 96H5.88221C2.62701 96 0 93.373 0 90.1178V5.88221C0 2.62701 2.62701 0 5.88221 0H90.1178C93.373 0 96 2.62701 96 5.88221V90.1178C96 93.373 93.373 96 90.1178 96Z" fill="#2C2E2E"/>
<path d="M46.3153 25.9845C56.0809 25.9845 64.0761 33.9798 64.0761 43.7454C64.0761 53.511 56.0809 61.5062 46.3153 61.5062C36.5497 61.5062 28.5544 53.5681 28.5544 43.7454C28.5544 33.9227 36.5497 25.9845 46.3153 25.9845ZM46.3153 20.8447C33.6942 20.8447 23.4146 31.1243 23.4146 43.7454C23.4146 56.3664 33.6942 66.646 46.3153 66.646C58.9363 66.646 69.2159 56.3664 69.2159 43.7454C69.2159 31.1243 58.9934 20.8447 46.3153 20.8447Z" fill="#EEEEEE"/>
<path d="M57.5657 63.7335L66.075 75.1553L71.3861 71.1576L62.5342 59.9643" fill="#EEEEEE"/>
</svg>
