<svg width="96" height="96" viewBox="0 0 96 96" fill="none" xmlns="http://www.w3.org/2000/svg">
<path d="M90.1178 96H5.88221C2.62701 96 0 93.373 0 90.1178V5.88221C0 2.62701 2.62701 0 5.88221 0H90.1178C93.373 0 96 2.62701 96 5.88221V90.1178C96 93.373 93.373 96 90.1178 96Z" fill="#2C2E2E"/>
<path d="M48.0285 44.8876C54.0212 44.8876 58.8792 40.0296 58.8792 34.0369C58.8792 28.0442 54.0212 23.1862 48.0285 23.1862C42.0359 23.1862 37.1779 28.0442 37.1779 34.0369C37.1779 40.0296 42.0359 44.8876 48.0285 44.8876Z" fill="#EEEEEE"/>
<path d="M35.7502 53.2826C33.6371 54.6532 31.6383 56.4236 29.9822 58.7079C26.6127 63.3338 30.0964 69.8442 35.8073 69.8442H48.0286H60.2499C66.1321 69.8442 69.4444 63.1624 65.9036 58.4224C64.3046 56.2523 62.3629 54.5961 60.307 53.2255C52.8257 48.3141 43.2314 48.3141 35.7502 53.2826Z" fill="#EEEEEE"/>
</svg>
